<?xml version="1.0" encoding="UTF-8"?><svg version="1.1" xmlns="http://www.w3.org/2000/svg" xmlns:xlink="http://www.w3.org/1999/xlink" viewBox="0 0 1500 1500" width="1500" height="1500" x="0px" y="0px">
    
    
    <!-- ITEM 0 -->
    <g>
        <defs>
            <clipPath id="clip-path-id-viewbox-item-0">
                <rect x="0.0" y="0.0" width="700.514" height="595.081"/>
            </clipPath>
        </defs>
        <g transform="translate(101.0 140.0) rotate(0.0 646.5 549.0) scale(1.845787521734041 1.8451269659088425)">
            <g clip-path="url(#clip-path-id-viewbox-item-0)" transform="translate(-0.0 -0.0)">
                
<g opacity="0.3">
	<g>
		<path fill="#C4ECFE" d="M698.238,2.276v590.529H2.276V2.276H698.238 M700.514,0H0v595.081h700.514L700.514,0L700.514,0z"/>
	</g>
	<g>
		<g>
			<rect x="0" y="421.88" fill="#C4ECFE" width="700.514" height="2.129"/>
		</g>
		<g>
			<rect x="0" y="336.637" fill="#C4ECFE" width="700.514" height="2.129"/>
		</g>
		<g>
			<rect x="0" y="421.88" fill="#C4ECFE" width="700.514" height="2.129"/>
		</g>
		<g>
			<rect x="0" y="507.048" fill="#C4ECFE" width="700.514" height="2.129"/>
		</g>
		<g>
			<rect x="0" y="251.468" fill="#C4ECFE" width="700.514" height="2.129"/>
		</g>
		<g>
			<rect x="0" y="166.226" fill="#C4ECFE" width="700.514" height="2.129"/>
		</g>
		<g>
			<rect x="0" y="81.057" fill="#C4ECFE" width="700.514" height="2.129"/>
		</g>
	</g>
</g>

            </g>
        </g>
    </g>
    
    <!-- ITEM 1 -->
    <g>
        <defs>
            <clipPath id="clip-path-id-viewbox-item-1">
                <rect x="0.0" y="0.0" width="705.458" height="439.086"/>
            </clipPath>
        </defs>
        <g transform="translate(108.0 432.0) rotate(0.0 647.0 403.5) scale(1.8342693682685576 1.8379087468058648)">
            <g clip-path="url(#clip-path-id-viewbox-item-1)" transform="translate(-0.0 -0.0)">
                <title>escalator</title><g id="Layer_2-i1" data-name="Layer 2"><g id="Layer_1-2-i1" data-name="Layer 1"><path d="M405.384,434.571H47.649c-40.637,0-59.29-49.371-28.424-75.13L432.771,14.067c28.423-23.76,72.243-4,72.169,32.569l-.592,291.636C504.2,391.418,459.936,434.571,405.384,434.571Z" fill="#fff"/><path d="M405.384,438.346H47.649c-20.356,0-37.972-12.139-44.782-30.94-6.736-18.579-1.406-38.046,13.916-50.777L430.328,11.255A47.689,47.689,0,0,1,481.7,4.667c16.654,7.846,27.017,23.908,26.943,42.043l-.592,291.636C507.974,393.416,461.86,438.346,405.384,438.346ZM461.046,7.48a40.535,40.535,0,0,0-25.907,9.474L21.594,362.328C6.272,375.133,5.532,392.676,9.9,404.815,14.488,417.4,26.775,430.8,47.575,430.8H405.31c52.331,0,95.04-41.525,95.189-92.6l.592-291.636c0-15.4-8.439-28.572-22.65-35.233A41.027,41.027,0,0,0,461.046,7.48Z" fill="#f9d5ff"/><path d="M592.282,115.622H463.341V85.94a34.085,34.085,0,0,1,34.123-34.123h94.818Z" fill="#fff"/><path d="M596.131,119.471H459.492V85.94a38,38,0,0,1,37.972-37.972h98.667Zm-128.941-7.7H588.433V55.666H497.464A30.31,30.31,0,0,0,467.19,85.94v25.833Z" fill="#f9d5ff"/><path d="M521.224,179.426H392.282V149.745a34.085,34.085,0,0,1,34.123-34.123h94.819Z" fill="#fff"/><path d="M525.073,183.275H388.433v-33.53a38,38,0,0,1,37.972-37.972h98.668Zm-128.942-7.7H517.375V119.471h-90.97a30.31,30.31,0,0,0-30.274,30.274v25.832Z" fill="#f9d5ff"/><path d="M450.165,243.157H321.224V213.475a34.085,34.085,0,0,1,34.123-34.123h94.818Z" fill="#fff"/><path d="M454.014,247.006H317.375V213.475A38,38,0,0,1,355.347,175.5h98.667Zm-128.941-7.7H446.316V183.2H355.347a30.31,30.31,0,0,0-30.274,30.274v25.833Z" fill="#f9d5ff"/><path d="M379.107,306.962H250.165V277.28a34.085,34.085,0,0,1,34.123-34.123h94.819Z" fill="#fff"/><path d="M382.956,310.811H246.316V277.28a38,38,0,0,1,37.972-37.972h98.668Zm-128.942-7.7H375.258V247.006h-90.97a30.311,30.311,0,0,0-30.274,30.274Z" fill="#f9d5ff"/><path d="M308.048,370.766H179.107V341.085a34.085,34.085,0,0,1,34.123-34.123h94.818v63.8Z" fill="#fff"/><path d="M311.9,374.615H175.258V341.084a38,38,0,0,1,37.972-37.971H311.9v71.5Zm-128.941-7.7H304.2V310.811H213.23a30.31,30.31,0,0,0-30.274,30.274Z" fill="#f9d5ff"/><path d="M236.99,434.571H108.048V404.889a34.085,34.085,0,0,1,34.123-34.123H236.99Z" fill="#fff"/><path d="M240.839,438.42H104.2V404.889a38,38,0,0,1,37.972-37.972h98.668v71.5Zm-128.942-7.7H233.141V374.615h-90.97A30.311,30.311,0,0,0,111.9,404.889Z" fill="#f9d5ff"/><path d="M602.5,435.311H245.428c-40.562,0-59.215-49.371-28.349-75.13L629.736,14.808c28.349-23.761,72.1-4,72.021,32.568l-.592,291.636C701.091,392.158,656.9,435.311,602.5,435.311Z" fill="#fff"/><path d="M602.5,439.086H245.428c-20.355,0-37.9-12.139-44.707-30.94-6.736-18.579-1.407-38.046,13.915-50.851L627.293,11.921a47.565,47.565,0,0,1,51.222-6.588,45.933,45.933,0,0,1,26.943,42.043l-.592,291.636C704.866,394.156,658.9,439.086,602.5,439.086ZM658.011,8.22a40.337,40.337,0,0,0-25.832,9.474L219.447,363.068c-15.322,12.806-16.136,30.348-11.695,42.561,4.59,12.584,16.8,25.981,37.676,25.981H602.5c52.258,0,94.819-41.525,94.893-92.6l.592-291.636a38.114,38.114,0,0,0-22.65-35.233A39.951,39.951,0,0,0,658.011,8.22Z" fill="#f9d5ff"/></g></g>
            </g>
        </g>
    </g>
    
    <!-- ITEM 2 -->
    <g>
        <defs>
            <clipPath id="clip-path-id-viewbox-item-2">
                <rect x="0.0" y="0.0" width="174.866" height="389.563"/>
            </clipPath>
        </defs>
        <g transform="translate(203.0 238.0) rotate(0.0 160.0 356.5) scale(1.8299726647833197 1.8302559534658067)">
            <g clip-path="url(#clip-path-id-viewbox-item-2)" transform="translate(-0.0 -0.0)">
                <title>plant_4</title><g id="Layer_2-i2" data-name="Layer 2"><g id="Layer_1-2-i2" data-name="Layer 1"><path d="M106.62,205.477a4.219,4.219,0,0,1-.962-.074,8.062,8.062,0,0,1-7.032-8.956c6.958-56.995,50.555-86.676,52.406-87.861a8.058,8.058,0,0,1,8.956,13.4c-.518.37-39.3,27.091-45.3,76.462A8.255,8.255,0,0,1,106.62,205.477Z" fill="#cae6c4"/><path d="M97.072,220.059a8.065,8.065,0,0,1-8-7.106c-5.921-47.816-43.375-56.846-43.745-56.92a8.045,8.045,0,0,1,3.553-15.693A71.524,71.524,0,0,1,74.57,153.516c11.843,9.326,26.721,26.869,30.5,57.513a8.133,8.133,0,0,1-7.032,9.03Z" fill="#cae6c4"/><path d="M97,221.762a8.087,8.087,0,0,1-8.069-8.068c0-89.934,11.918-143.376,19.1-167.284a8.079,8.079,0,0,1,15.47,4.663c-6.883,23.02-18.356,74.834-18.356,162.7A8.185,8.185,0,0,1,97,221.762Z" fill="#cae6c4"/><path d="M113.8,63.434a8.147,8.147,0,0,1-2.3-.3,8.059,8.059,0,0,1-5.477-9.992c4.515-15.4,9.918-29.978,10.141-30.57a8.056,8.056,0,0,1,15.1,5.625c-.074.148-5.4,14.656-9.844,29.534A7.861,7.861,0,0,1,113.8,63.434Z" fill="#edc16c"/><path d="M89,241.155a4.219,4.219,0,0,1-.962-.074,8.063,8.063,0,0,1-7.032-8.957c11.1-92.154-22.131-155.44-36.861-178.386A8.078,8.078,0,1,1,57.693,44.93c15.766,24.426,51.074,91.635,39.379,189.045A8.147,8.147,0,0,1,89,241.155Z" fill="#cae6c4"/><path d="M50.884,57.365a8.155,8.155,0,0,1-6.81-3.7A328.719,328.719,0,0,0,15.8,15.84,8.078,8.078,0,0,1,27.938,5.181,347.283,347.283,0,0,1,57.693,44.93a8.1,8.1,0,0,1-2.368,11.177A8.988,8.988,0,0,1,50.884,57.365Z" fill="#edc16c"/><path d="M50.958,57.365a8.022,8.022,0,0,1-7.624-5.478C31.416,16.432,51.846.666,52.734,0l9.623,12.953.148-.074c-.519.37-11.918,9.993-3.849,33.9A8.033,8.033,0,0,1,53.548,57,10.422,10.422,0,0,1,50.958,57.365Z" fill="#edc16c"/><path d="M50.884,57.365a8.062,8.062,0,0,1-4.738-1.554c-20.577-14.952-33.308-6.662-33.382-6.588a8.063,8.063,0,0,1-9.4-13.1c.888-.666,22.058-15.4,52.332,6.588A7.988,7.988,0,0,1,57.471,53.96,8.141,8.141,0,0,1,50.884,57.365Z" fill="#edc16c"/><path d="M113.874,63.434a8.105,8.105,0,0,1-8.068-7.92c-.222-16.432-11.621-27.461-11.769-27.535A8.065,8.065,0,0,1,105.066,16.21c.666.592,16.506,15.618,16.876,39.082a8.089,8.089,0,0,1-7.92,8.217C113.948,63.434,113.948,63.434,113.874,63.434Z" fill="#edc16c"/><path d="M85.376,144.486a7.991,7.991,0,0,1-6.883-3.849c-8.661-13.99-18.875-22.132-29.682-23.539a8.061,8.061,0,1,1,2.073-15.988C70.869,103.7,84.414,119.467,92.26,132.2A8.012,8.012,0,0,1,89.6,143.3,7.928,7.928,0,0,1,85.376,144.486Z" fill="#cae6c4"/><path d="M104.4,109.919a13.211,13.211,0,0,1-1.7-.148,8.124,8.124,0,0,1-6.218-9.549c3.405-15.914,18.135-21.836,26.277-22.8a8.056,8.056,0,0,1,2,15.988c-.592.074-10.733,1.629-12.509,10.215A8,8,0,0,1,104.4,109.919Z" fill="#cae6c4"/><path d="M56.731,212.583,38.966,194.819H154.955L137.19,212.583a25.615,25.615,0,0,0,3.035,38.86,73.892,73.892,0,0,1,30.866,60.326c-.074,39.6-31.68,72.539-71.281,74.019A74.159,74.159,0,0,1,53.77,251.369,25.525,25.525,0,0,0,56.731,212.583Z" fill="#fff"/><path d="M96.849,389.563A77.926,77.926,0,0,1,18.981,311.7a78.139,78.139,0,0,1,32.569-63.36,21.555,21.555,0,0,0,8.882-15.693,22.069,22.069,0,0,0-6.366-17.394L36.3,197.483a3.724,3.724,0,0,1,2.664-6.365H154.955a3.792,3.792,0,0,1,3.478,2.294,3.751,3.751,0,0,1-.814,4.071l-17.764,17.765a21.829,21.829,0,0,0,2.59,33.161A77.806,77.806,0,0,1,153.03,365.655a77.134,77.134,0,0,1-53,23.834C98.922,389.563,97.886,389.563,96.849,389.563ZM48,198.594l11.4,11.4a29.644,29.644,0,0,1,8.586,23.242A28.66,28.66,0,0,1,55.991,254.4a70.443,70.443,0,0,0-7.846,108.068,70.419,70.419,0,1,0,89.933-107.92,29.1,29.1,0,0,1-11.991-21.391,29.687,29.687,0,0,1,8.512-23.168l11.4-11.4Z" fill="#f9d5ff"/><rect x="64.281" y="227.535" width="68.838" height="7.476" fill="#f9d5ff"/></g></g>
            </g>
        </g>
    </g>
    
    <!-- ITEM 3 -->
    <g>
        <defs>
            <clipPath id="clip-path-id-viewbox-item-3">
                <rect x="0.0" y="0.0" width="298.334" height="3.035"/>
            </clipPath>
        </defs>
        <g transform="translate(712.0 1231.0) rotate(0.0 341.0 3.5) scale(2.286028411109696 2.3064250411861615)">
            <g clip-path="url(#clip-path-id-viewbox-item-3)" transform="translate(-0.0 -0.0)">
                <title>line_4</title><g id="Layer_2-i3" data-name="Layer 2"><g id="Layer_1-2-i3" data-name="Layer 1"><rect width="298.334" height="3.035" fill="#2b2b2b"/></g></g>
            </g>
        </g>
    </g>
    
    <!-- ITEM 4 -->
    <g>
        <defs>
            <clipPath id="clip-path-id-viewbox-item-4">
                <rect x="0.0" y="0.0" width="465.202" height="560.113"/>
            </clipPath>
        </defs>
        <g transform="translate(214.0 189.0) rotate(0.0 426.0 513.0) scale(1.8314624614683515 1.8317732314729347)">
            <g clip-path="url(#clip-path-id-viewbox-item-4)" transform="translate(-0.0 -0.0)">
                
<g>
	<path fill="#BE6361" d="M250.602,98.15l10.437-8.438c11.177-9.03,27.609-7.328,36.714,3.849c8.364,10.289,7.55,25.019-1.332,34.345   l-5.181,5.477L250.602,98.15z"/>
	
		<linearGradient id="SVGID_7_-i4" gradientUnits="userSpaceOnUse" x1="1.9237" y1="-1384.8372" x2="1.9237" y2="-1229.3967" gradientTransform="matrix(1 0 0 1 242.4 1511.04)">
		<stop offset="0" style="stop-color:#EA979A"/>
		<stop offset="0.4092" style="stop-color:#F2D38B"/>
		<stop offset="0.4989" style="stop-color:#7E9DAE"/>
		<stop offset="0.599" style="stop-color:#90979D"/>
		<stop offset="1" style="stop-color:#7EBDDB"/>
	</linearGradient>
	<path fill="url(#SVGID_7_-i4)" d="M291.312,133.383L191.09,239.23l-35.899-60.844l157.143-52.036   c18.949-6.292,39.378,3.997,45.67,22.946s-3.997,39.378-22.946,45.67l-157.143,52.036l-2.221,0.74   c-18.727,6.218-38.86-3.923-45.078-22.65c-4.811-14.434,0.222-29.83,11.399-38.934l108.66-88.009L291.312,133.383z"/>
	<g>
		<path fill="#2B2B2B" d="M224.769,204.885c-0.296,0-0.592-0.148-0.814-0.37c-0.518-0.444-0.518-1.258-0.074-1.702l66.543-70.244    c0.444-0.518,1.258-0.518,1.702-0.074c0.518,0.444,0.518,1.258,0.074,1.702l-66.543,70.244    C225.435,204.737,225.065,204.885,224.769,204.885z"/>
	</g>
	
		<linearGradient id="SVGID_18_-i4" gradientUnits="userSpaceOnUse" x1="-42.9085" y1="-1069.713" x2="-42.9085" y2="-1301.3959" gradientTransform="matrix(1 0 0 1 242.4 1511.04)">
		<stop offset="0" style="stop-color:#D96359"/>
		<stop offset="0.401" style="stop-color:#90979D"/>
		<stop offset="0.5011" style="stop-color:#7E9DAE"/>
		<stop offset="0.5908" style="stop-color:#B8C1FC"/>
		<stop offset="1" style="stop-color:#D2D4D4"/>
	</linearGradient>
	<path fill="url(#SVGID_18_-i4)" d="M300.861,337.084l-5.625-1.48c0,0-67.061-22.502-81.273-28.275   c-1.184-0.518-13.175-5.181-24.574-10.363c-23.242-10.511-54.404-25.315-58.993-27.609l69.652-44.264l-2.221,16.21l-1.11,8.142   l-1.184,8.142c-1.628,10.807-1.036,8.29-4.959,32.42c-3.923,24.426-61.214,193.56-61.214,193.56l-69.06-17.987l37.38-247.076   c1.85-28.423,26.351-50.037,54.848-48.261c5.403,0.37,10.807,1.628,15.618,3.479l170.54,67.209L300.861,337.084z"/>
	<g>
		<path fill="#2B2B2B" d="M189.388,298.224c-0.074,0-0.148,0-0.222,0c-0.666-0.074-1.11-0.74-1.036-1.406l3.257-20.503    c0.074-0.666,0.74-1.11,1.406-1.036c0.666,0.074,1.11,0.74,1.036,1.406l-3.257,20.503    C190.498,297.779,189.98,298.224,189.388,298.224z"/>
	</g>
	<g>
		<path fill="#2B2B2B" d="M3.97,473.353l107.772,30.94c5.625,1.628,11.547-1.554,13.323-7.18l4.219-13.546l-68.32-18.875    L5.672,462.62C-0.768,462.398-2.248,471.577,3.97,473.353z"/>
	</g>
	
		<linearGradient id="SVGID_34_-i4" gradientUnits="userSpaceOnUse" x1="105.1718" y1="-1384.8372" x2="105.1718" y2="-1229.3967" gradientTransform="matrix(1 0 0 1 242.4 1511.04)">
		<stop offset="0" style="stop-color:#EA979A"/>
		<stop offset="0.4092" style="stop-color:#F2D38B"/>
		<stop offset="0.4989" style="stop-color:#7E9DAE"/>
		<stop offset="0.599" style="stop-color:#90979D"/>
		<stop offset="1" style="stop-color:#7EBDDB"/>
	</linearGradient>
	<path fill="url(#SVGID_34_-i4)" d="M279.469,240.34c0.666-36.566,25.759-34.493,16.506-59.215s2.517-58.993,30.57-58.475   c21.688,0.37,23.168-0.444,32.272-0.296c28.867,0.518,48.261,30.274,39.452,57.735c0,0-2.295,6.218-2.295,14.508   c0,8.29,20.207,20.873,19.689,45.966L279.469,240.34z"/>
	<path fill="#2B2B2B" d="M328.692,144.56l-21.614-16.358l2.961-0.962c0,0,8.068-5.329,17.321-4.589L328.692,144.56z"/>
	
		<linearGradient id="SVGID_35_-i4" gradientUnits="userSpaceOnUse" x1="66.6932" y1="-1069.3086" x2="66.6932" y2="-1301.337" gradientTransform="matrix(1 0 0 1 242.4 1511.04)">
		<stop offset="0" style="stop-color:#D96359"/>
		<stop offset="0.401" style="stop-color:#90979D"/>
		<stop offset="0.5011" style="stop-color:#7E9DAE"/>
		<stop offset="0.5908" style="stop-color:#B8C1FC"/>
		<stop offset="1" style="stop-color:#D2D4D4"/>
	</linearGradient>
	<path fill="url(#SVGID_35_-i4)" d="M415.369,331.236l-2.295,0.814l-2.295,0.74l-4.663,1.48l-4.663,1.332l-4.663,1.258   c-3.109,0.888-6.218,1.628-9.326,2.443l-9.4,2.221c-12.509,2.887-25.167,5.255-37.824,7.328c-3.183,0.518-6.366,1.036-9.548,1.48   l-9.549,1.406c-3.183,0.518-6.366,0.814-9.548,1.258c-3.183,0.37-6.366,0.814-9.548,1.184l-9.622,1.036   c-3.183,0.37-6.44,0.666-9.622,0.962c-6.44,0.518-12.805,1.184-19.319,1.628l41.895-54.552l-0.074,13.694v6.884l-0.074,6.884   c-0.148,9.178-0.222,18.283-0.518,27.461l-0.37,13.768l-0.518,13.768c-0.296,9.178-0.888,18.357-1.332,27.535   c-1.11,18.357-2.369,36.788-4.145,55.218c-0.888,9.252-1.85,18.431-2.961,27.683c-0.518,4.589-1.11,9.252-1.776,13.842   l-1.036,7.032l-0.518,3.479l-0.592,3.479l-69.874,5.922l-18.579-217.987c-2.295-26.721,16.506-50.481,42.339-55.218l151.813-27.091   L415.369,331.236z"/>
	<g>
		<path fill="#2B2B2B" d="M305.08,355.07c-0.666,0-1.258-0.518-1.258-1.258v-17.913c0-0.666,0.518-1.258,1.258-1.258    c0.74,0,1.258,0.518,1.258,1.258v17.913C306.338,354.478,305.746,355.07,305.08,355.07z"/>
	</g>
	<g>
		<path fill="#2B2B2B" d="M203.007,302.887c-0.074,0-0.074,0-0.148,0c-0.666-0.074-1.11-0.666-1.036-1.332    c2.961-23.242,20.429-41.599,43.523-45.818l90.452-16.358c0.666-0.148,1.332,0.296,1.406,0.962    c0.148,0.666-0.296,1.332-0.962,1.406l-90.452,16.358c-22.058,3.997-38.786,21.614-41.599,43.745    C204.118,302.369,203.6,302.887,203.007,302.887z"/>
	</g>
	<g>
		<path fill="#BE6361" d="M337.574,144.412l31.606-14.212l-8.438-71.799l-40.266,2.813l1.258,73.057    C321.882,142.413,330.172,147.668,337.574,144.412z"/>
		<g>
			<g>
				<path id="SVGID_33_-i4" fill="#BE6361" d="M310.779,100.592l25.241,1.332c13.101,0.666,24.278-9.326,24.944-22.428l1.999-38.12      c1.11-20.947-14.952-38.786-35.899-39.896l0,0c-20.947-1.11-38.786,14.952-39.896,35.899l-1.85,34.937      C284.577,87.121,295.976,99.778,310.779,100.592z"/>
			</g>
			<g>
				<path fill="#2B2B2B" d="M290.054,48.261c0,2.147-1.628,3.923-3.701,4.219l0.444-8.364      C288.648,44.56,290.054,46.262,290.054,48.261z"/>
			</g>
		</g>
		<path fill="#2B2B2B" d="M290.868,62.694L290.868,62.694c1.776-0.592,3.627-0.888,5.551-0.962l5.255-0.074    c3.109,0,6.218,0.814,8.882,2.369l9.845,5.699c3.553,2.073,8.142,0.518,9.697-3.331l8.734-21.54h9.178v43.079    c0,7.18-5.848,13.027-13.101,13.027h-22.206c-15.322,0-27.683-12.509-27.387-27.831l0.074-3.109    C285.465,66.765,287.685,63.805,290.868,62.694z"/>
		<path fill="#FFFFFF" d="M293.311,70.244c0,0,5.996,12.287,10.955,0.74L293.311,70.244z"/>
		<polygon fill="#2B2B2B" points="321.142,101.036 338.685,99.926 321.438,118.505   "/>
		<circle fill="#2B2B2B" cx="310.409" cy="49.741" r="4.293"/>
	</g>
	<g>
		<path fill="#2B2B2B" d="M281.246,62.546c-7.994,0-14.508-6.514-14.508-14.508s6.514-14.508,14.508-14.508    s14.508,6.514,14.508,14.508S289.24,62.546,281.246,62.546z M281.246,36.047c-6.662,0-11.991,5.403-11.991,11.991    s5.403,11.991,11.991,11.991c6.662,0,11.991-5.403,11.991-11.991S287.907,36.047,281.246,36.047z"/>
	</g>
	
		<linearGradient id="SVGID_36_-i4" gradientUnits="userSpaceOnUse" x1="161.0263" y1="-1384.8372" x2="161.0263" y2="-1229.3967" gradientTransform="matrix(1 0 0 1 242.4 1511.04)">
		<stop offset="0" style="stop-color:#EA979A"/>
		<stop offset="0.4092" style="stop-color:#F2D38B"/>
		<stop offset="0.4989" style="stop-color:#7E9DAE"/>
		<stop offset="0.599" style="stop-color:#90979D"/>
		<stop offset="1" style="stop-color:#7EBDDB"/>
	</linearGradient>
	<path fill="url(#SVGID_36_-i4)" d="M410.779,152.85c1.184,2.591,2.295,5.181,3.479,7.846l3.331,7.846   c2.221,5.255,4.367,10.511,6.514,15.766c4.219,10.585,8.29,21.17,12.287,31.828c3.997,10.659,7.772,21.392,11.547,32.124   c1.924,5.403,3.701,10.733,5.551,16.136l5.403,16.21l0.888,2.591c0.74,2.073,1.11,4.367,1.258,6.44l1.11,16.654   c0.296,5.551,0.666,11.103,0.962,16.654c0.592,11.103,1.036,22.28,1.406,33.383c0.37,11.177,0.592,22.28,0.666,33.457   c0,5.625,0.074,11.177-0.074,16.802l-0.148,8.364c-0.074,2.813-0.148,5.625-0.296,8.438c-0.666,14.508-13.027,25.759-27.535,25.018   c-11.769-0.592-21.392-8.808-24.204-19.689c-0.74-2.739-1.332-5.477-1.999-8.216l-1.85-8.216   c-1.258-5.477-2.369-10.955-3.479-16.432c-2.221-10.955-4.219-21.91-6.218-32.939c-1.924-10.955-3.701-21.984-5.477-33.013   c-0.888-5.477-1.628-11.029-2.517-16.506l-2.369-16.506l2.147,9.03l-6.588-15.766c-2.147-5.255-4.367-10.511-6.44-15.84   c-4.293-10.585-8.438-21.169-12.509-31.754c-4.071-10.659-7.994-21.318-11.769-32.05c-1.85-5.403-3.775-10.733-5.551-16.136   l-2.665-8.142c-0.814-2.739-1.702-5.403-2.517-8.142c-5.625-19.171,5.329-39.378,24.5-45.004   C385.095,128.127,403.377,136.788,410.779,152.85z"/>
	<g>
		<path fill="#2B2B2B" d="M172.882,560.03l110.585-18.431c5.773-0.962,9.771-6.366,8.956-12.139l-1.999-14.064l-69.8,12.361    l-50.777,21.836C163.925,552.11,166.516,561.066,172.882,560.03z"/>
	</g>
	<g>
		<path fill="#BE6361" d="M297.678,48.038l-5.699,6.144c-1.11,1.184-1.036,3.109,0.222,4.219l3.405,2.295"/>
		<path fill="#2B2B2B" d="M295.605,61.954c-0.222,0-0.444-0.074-0.666-0.222l-3.553-2.369c-0.888-0.74-1.332-1.776-1.406-2.961    c-0.074-1.11,0.37-2.221,1.11-3.035l5.699-6.144c0.444-0.518,1.258-0.518,1.702-0.074c0.518,0.444,0.518,1.258,0.074,1.702    l-5.699,6.144c-0.296,0.37-0.444,0.74-0.444,1.258c0,0.444,0.222,0.888,0.518,1.184l3.331,2.221c0.592,0.37,0.74,1.11,0.296,1.702    C296.42,61.732,295.976,61.954,295.605,61.954z"/>
	</g>
	<g>
		<path fill="#2B2B2B" d="M311.89,64.249c-7.994,0-14.508-6.514-14.508-14.508s6.514-14.508,14.508-14.508    c7.994,0,14.508,6.514,14.508,14.508S319.884,64.249,311.89,64.249z M311.89,37.75c-6.662,0-11.991,5.403-11.991,11.991    c0,6.662,5.403,11.991,11.991,11.991c6.662,0,11.991-5.403,11.991-11.991C323.881,43.079,318.551,37.75,311.89,37.75z"/>
	</g>
	<g>
		<path fill="#2B2B2B" d="M298.788,49.297h-4.367c-0.666,0-1.258-0.518-1.258-1.258s0.518-1.258,1.258-1.258h4.367    c0.666,0,1.258,0.518,1.258,1.258S299.454,49.297,298.788,49.297z"/>
	</g>
	<g>
		<path fill="#2B2B2B" d="M288.5,211.695c-0.222,0-0.444-0.074-0.592-0.148c-0.592-0.296-0.814-1.11-0.444-1.702    c1.406-2.517,2.961-4.367,4.293-6.07c3.183-3.923,5.477-6.736,4.959-15.322c-0.074-0.666,0.444-1.258,1.184-1.258    c0.666,0,1.258,0.444,1.258,1.184c0.518,9.548-2.295,13.027-5.477,17.024c-1.332,1.628-2.739,3.331-4.071,5.699    C289.314,211.473,288.944,211.695,288.5,211.695z"/>
	</g>
	<path fill="#2B2B2B" d="M288.426,20.207c16.284,9.104,37.824,8.734,49.149,3.849l1.258,20.873l9.104,7.254l13.694,14.36   l1.11-26.943c0.888-21.244-15.988-39.082-37.306-39.304L293.755,0c-1.702,0-3.479,0.37-4.959,1.184l0,0   C281.172,5.107,280.95,15.988,288.426,20.207z"/>
	<path fill="#BE6361" d="M355.709,55.514h-7.698V40.933c0-3.405,2.739-6.144,6.144-6.144h1.554c3.405,0,6.144,2.739,6.144,6.144   v8.438C361.853,52.776,359.114,55.514,355.709,55.514z"/>
	<path fill="#BE6361" d="M465.202,408.174l-0.46,13.612c0.268,14.367-11.167,26.448-26.013,26.656   c-13.256,0.287-24.075-9.391-26.454-22.264l-1.687-7.183L465.202,408.174z"/>
</g>

            </g>
        </g>
    </g>
    
    <!-- ITEM 5 -->
    <g>
        <defs>
            <clipPath id="clip-path-id-viewbox-item-5">
                <rect x="0.0" y="0.0" width="507.605" height="438.399"/>
            </clipPath>
        </defs>
        <g transform="translate(470.0 434.0) rotate(0.0 466.5 402.5) scale(1.8380433604869928 1.8362268162108033)">
            <g clip-path="url(#clip-path-id-viewbox-item-5)" transform="translate(-0.0 -0.0)">
                
<g>
	<path fill="#FFFFFF" d="M404.644,434.624H47.575c-40.563,0-59.215-49.371-28.349-75.13L431.883,14.121   c28.349-23.76,72.095-3.997,72.021,32.568l-0.592,291.636C503.237,391.471,459.048,434.624,404.644,434.624z"/>
	<path fill="#F9D5FF" d="M404.644,438.399H47.575c-20.355,0-37.898-12.139-44.708-30.94c-6.736-18.579-1.406-38.046,13.916-50.851   L429.44,11.234c14.434-12.065,34.049-14.656,51.221-6.588c16.654,7.772,27.017,23.908,26.943,42.043l-0.592,291.636   C507.012,393.47,461.046,438.399,404.644,438.399z M460.158,7.533c-9.252,0-18.357,3.257-25.833,9.474L21.594,362.382   C6.272,375.187,5.458,392.73,9.899,404.943c4.589,12.583,16.802,25.981,37.676,25.981h357.069   c52.258,0,94.819-41.525,94.893-92.598l0.592-291.636c0-15.396-8.438-28.645-22.65-35.233   C471.927,8.792,466.006,7.533,460.158,7.533z"/>
</g>

            </g>
        </g>
    </g>
    
    <!-- ITEM 6 -->
    <g>
        <defs>
            <clipPath id="clip-path-id-viewbox-item-6">
                <rect x="0.0" y="0.0" width="128.645" height="376.321"/>
            </clipPath>
        </defs>
        <g transform="translate(1080.0 549.0) rotate(0.0 117.5 342.0) scale(1.8267324808581755 1.817597210891765)">
            <g clip-path="url(#clip-path-id-viewbox-item-6)" transform="translate(-0.0 -0.0)">
                <title>plant_5</title><g id="Layer_2-i6" data-name="Layer 2"><g id="Layer_1-2-i6" data-name="Layer 1"><path d="M61.584,185.869a8.052,8.052,0,0,1-8.068-7.624c-3.405-65.951-41.525-73.723-43.153-74.019l1.406-7.92L13.1,88.312c1.407.222,14.286,2.664,27.61,15.1,21.761,20.281,27.757,51.443,28.941,74.019a8.146,8.146,0,0,1-7.624,8.512A.939.939,0,0,0,61.584,185.869Z" fill="#cae6c4"/><path d="M71.429,242.864a3.607,3.607,0,0,1-.889-.074,8.048,8.048,0,0,1-7.106-8.882c6.514-58.55,48.927-72.613,50.778-73.2a8.076,8.076,0,0,1,4.885,15.4c-1.554.518-34.345,11.917-39.6,59.585A8.147,8.147,0,0,1,71.429,242.864Z" fill="#cae6c4"/><path d="M52.406,242.05a8.253,8.253,0,0,1-2.3-.37,8.064,8.064,0,0,1-5.4-10.067c13.175-43.819,9.844-74.981,6.957-102.443-2.738-25.832-5.329-50.259,5.848-79.57a8.083,8.083,0,0,1,15.1,5.773c-9.771,25.685-7.476,47.225-4.885,72.1,3.108,28.942,6.587,61.806-7.55,108.734A8.1,8.1,0,0,1,52.406,242.05Z" fill="#cae6c4"/><path d="M64.915,60.555a9.168,9.168,0,0,1-2.739-.445,8.051,8.051,0,0,1-4.885-10.288A349.637,349.637,0,0,1,76.906,4.3a8.046,8.046,0,1,1,14.212,7.55A338.081,338.081,0,0,0,72.391,55.3,7.83,7.83,0,0,1,64.915,60.555Z" fill="#f9d5ff"/><path d="M64.989,60.555h-.74a8.058,8.058,0,0,1-7.328-8.735c2.22-25.166-11.1-31.754-11.695-32.05l.148.074L51.739,4.966c1.037.444,24.575,10.955,21.318,48.261A8.114,8.114,0,0,1,64.989,60.555Z" fill="#f9d5ff"/><path d="M64.989,60.629A8.372,8.372,0,0,1,59.734,58.7a8.087,8.087,0,0,1-.889-11.4c24.279-28.5,48.335-19.1,49.3-18.653L102,43.6l.148.074c-.593-.222-14.656-5.033-31.089,14.138A7.868,7.868,0,0,1,64.989,60.629Z" fill="#f9d5ff"/><path d="M57.735,111.924a3.6,3.6,0,0,1-.888-.074,8.072,8.072,0,0,1-7.18-8.882c2.368-22.28,9.326-32.2,25.61-36.418a8.07,8.07,0,0,1,4.072,15.618c-6.44,1.7-11.547,3.035-13.62,22.5A8.026,8.026,0,0,1,57.735,111.924Z" fill="#cae6c4"/><path d="M31.458,230.947,16.95,216.439h94.819L97.261,230.947A20.923,20.923,0,0,0,99.7,262.7a60.607,60.607,0,1,1-70.688-.074A20.789,20.789,0,0,0,31.458,230.947Z" fill="#fff"/><path d="M64.249,376.321A64.414,64.414,0,0,1,0,311.924a64.57,64.57,0,0,1,26.869-52.332A16.92,16.92,0,0,0,33.9,247.231a17.192,17.192,0,0,0-5.033-13.693h0L14.36,219.03a3.682,3.682,0,0,1,2.59-6.292h94.819a3.691,3.691,0,0,1,3.405,2.295,3.636,3.636,0,0,1-.814,4L99.852,233.538a17.381,17.381,0,0,0-5.033,13.619,16.976,16.976,0,0,0,7.031,12.509,64.281,64.281,0,0,1,8.735,96.892,63.723,63.723,0,0,1-43.746,19.689C65.951,376.247,65.137,376.321,64.249,376.321Zm-30.2-147.965a24.7,24.7,0,0,1,7.18,19.541,24.252,24.252,0,0,1-10.141,17.765,56.935,56.935,0,1,0,66.4.074,24.463,24.463,0,0,1-10.066-17.913,24.8,24.8,0,0,1,7.18-19.467l8.216-8.216H25.833l8.216,8.216Z" fill="#f9d5ff"/><rect x="37.602" y="236.572" width="53.59" height="7.402" fill="#f9d5ff"/><rect x="35.751" y="251.006" width="57.365" height="7.402" fill="#f9d5ff"/></g></g>
            </g>
        </g>
    </g>
    
</svg>