<?xml version="1.0" encoding="UTF-8"?><svg xmlns="http://www.w3.org/2000/svg" viewBox="0 0 637.277 330.804" enable-background="new 0 0 637.277 330.804" x="0px" y="0px" width="638px" height="331px" version="1.1" xmlns:xlink="http://www.w3.org/1999/xlink"><g><path d="M622.928 136.304c2.2-15.2-3.8-31.4-1-46.3 1.4-7.9 3.2-15 1.6-23.6-1.3-7.1-2.6-13.8-2.9-20.8-.5-8.4 2.6-16.7 1.6-25-.4-3.6.7-2.4-3.8-3.8-2.5-.7-5-1.4-7.5-2-5.1-1.2-10.1-2-15.1-2.7-9-1.1-19-3.2-27.9-3-7.3.2-7.1 4.2-6.8 10.2-3.1-3.5-8.6-12-14-12.3-5.3-.3-10.3 7.2-13.1 10.2-7.2-8.3-27.9-19.2-27.1-.5-.4-8.6-7-9.7-15.3-10.1-13.4-.6-27.3-3.7-39.1 4.7-1.9-2.5-9.4-4.5-13.1-3.8-5.3 1-10 6.4-13.8 9.7-.2-4.2-10.1-7.4-13.9-7.8-4.5-.4-9.9.8-14.4 1.2-4.5.3-27.3.8-26.1 7.5-3.9-1.9-8.9-5-13.8-4.1-4.9 1-9.6 5.9-13.2 8.9.4-4.9-10-6.9-13.8-5.8-4.2 1.2-8.2 10.1-12.6 10.2-1.2 0-1.1-1.7-2-2.4-2.5-1.8-5.1-3-8.1-4-3.9-1.2-7.4-1-11.6-.8-11.4.6-22.1 5.7-33.2 6.4-8.1.5-12.4-2.6-19.1 2.5-1.4 1-5.1 4.8-7 4.8-1.5.1-6.6-4.1-9.1-4.8-8.9-2.5-20.4 0-29.8.7-5.9.4-11.7 1.2-16.3 3.7-1.9 1 .6 1.4-3.1 1.7-6.1.6-12.1-1.9-17.8-3.3-7.6-1.8-15.5-1.6-23.2-.3-1.8.3-9.1 1-10.1 2.4-.6.8.1 3.3.2 4.4-4-2.7-9.2-7.6-14.5-7.7-4 0-10.9 3.5-12.6 6.2-3.7-2.6-8.8-7.3-13.8-7.1-5 .2-9.7 5.1-13.2 7.7-.2-3.8-9.2-8.5-12.7-9.1-3.9-.7-10.4 2.3-14.3 3.2-7.3 1.9-14.6-3-22.3-6.2-2.5-1-7.9-4.4-10.4-4.6-5.6-.2-1.1 7.9 0 11.4.7 2.3 4 9.4 2.9 11.4-.5.9-1.4-.5-1.7-.2-.9.8-1.8 1-2.7 2.3-2.5 3.8-2.6 11.6-2.9 16.3-.6 8.3-1.2 24.9 12.3 26.9-3.6 2.2-12.4 5.5-12.5 10.5-.1 4.9 8.2 11.2 11.6 14.4-3.4 2.3-11.6 5.7-11.5 10.7 0 4.9 8 11.1 11.5 14.3-10.2-1.6-10.3 5.4-10.7 13.3-.6 10.9-4.9 24.9 4.3 35.7-2.5 3.2-6 7-4.7 11.7 1.3 4.8 6.7 10 9.7 14.1-6.4-1-9.4 8.7-10.1 13.4-1.9 12.1 3.4 24.8 2.6 36.9-.7 10.1-2.8 19.7-3.1 29.9-.2 5.3.1 10.8.6 16.2.4 4.5-.2 5.1 4.7 5.6 4.1.5 8.2.8 12.4 1.2 10.6.9 21 2 31.5 4.9 5.8 1.6 11.7 3.7 17.6 3.9 6.9.3 13.5-1.4 20.3-1.8 11.7-.7 23 4.6 34.6 4.1 12.5-.5 22.7-3.8 35.3-2.4 6.9 1 43.7 2.8 43.3-8 3.6 2.4 8.7 7 13.8 6.6 5-.4 9.7-5.6 13.3-8.6-.3 3.2 2.8 4.1 5.5 4.9 7.2 2 8.4 1.2 13.6-3.3 1.5-1.3 3.8-4 5.8-4.7 3.4-1.2.5-.6 3.5 1.2 6.4 3.7 10.8 5.5 18.5 5.1 9.3-.5 18.2-2.2 27.4-4.7 2.9-.7 5.7-1.6 8.6-1.8 3.6-.3 8.7 1.9 12 1 2.9-.7 6.5-4.4 9.1-6.1 4.1-2.7 3.5-2.6 7.5-1.1 7.6 3 10.5 4.7 19 4.2 9.4-.6 17.8-3.3 27-5.1 7.3-1.4 14.4-.4 21.6.2 7.1.6 12.9.6 20.1-1 7.3-1.6 14.2-3.7 21.7-3.2 7.7.5 15.3 2.6 23.1 2.6 8.1.1 15.7-3.2 23.7-3.5 7-.3 14.2 1.8 21 3.1 7.6 1.4 13.9 1.5 21.5.8 8.1-.8 14.9-.9 23.1 1.2 7.3 1.9 10.4 4.1 15.3.1 4.3-3.5 8.6-7 12.9-10.4 3.5-2.7 3.6-2.7 3.4-7.5 6.9 3.2 13.8 6.6 20.7 10.1.2-4.9 1.1-9.7 1-14.8-.2-6.3-2.3-12.7-2.9-19-.7-7.4 1.8-14 2-21.2.2-8.2 4.4-30.8-11.4-33.3 4.2-3.9 12.7-7.8 12.6-14.5-.1-5.9-9.8-15.3-8.3-20.3 1-3.4 6.4.6 8.2-2.7 3.2-5.7-7.7-20-11.4-24.7 6.4 1 11.2-10.7 11.3-10.7z" fill="#4F73B8"/><path d="M31.828 84.104s-.2-.4-.8-.4c.7-.3.5-1.6-.5-1.6.2-.2.3-.4.3-.7-.6-.5-3.7-2.9-3.6-1-.4-1.1-.4-1.1-.5-.1-.4-1.1-.5-1-.5 0 0-.7-.3-1-.8-.6 0-.2-.1-.1-.5.1.2-.8-.3-.9-.8-.7 0-.6 0-.6-.5-.1-.8-1.1-2.6-1.7-4.4-1.3-.5-.2-.7-.2-.6 0-.5-.6-.6-.5-.5.3-.4-.9-2.8.9-1.3 1.5-.6.3-.7.5-.2.6-1 .2-1 .5.1.7-1.2.2.1 1.2.5 1.4-.1.6 0 .5.7.2-.9 1 4.6 3.8 4.8 2.9.1.8.1.8.5.2 0 0 1.4 1.6 2.1.6.1.2 6.4.8 6.5-2zM260.628 229.604c-2.3-4-7.4-3.1-6.9-9 .4-5.5 6.4-3.2 3.1-10.4-3.5-7.5-24-14.4-30.9-18.2-11.2-5.9-18.9-8.4-32.1-6.1-5 .9-7.9 2.2-12.7-.2-2.1-1-6.5-12.1-10.7-6.4 6-11.9-16.5-4.7-16.3-14.8.4-17.9 18.4-3 23.7-2 6.2 1.2 6.6-1.1 7.8-5.7.7-2.9-1.6-4.4.1-7.5 1.2-2.3 4.6-1.6 5.9-3.8 2.7-4.4-1.1-5.9 1.1-10.2 2.2-4.4 9.2-4 11-8.9 7.8 11 1.3-8.7 1.5-9.1 2.8-5.5 12.2-.5 16.2-4 8-7.1-5-6.9-8.1-8.7-1.9-1-4.5-5.3-5.4-5.8-3.7-1.9-2 .1-5.9-.9-6.7-1.8-13.1-3-16.3 3.2-1.4 2.6 1.8 5.9-.6 8.5-1.7 1.8-7.5 2.1-9.9 2-26.4-1.7 1.8-36.8 16.1-27.6-6.3 9.4 13.6 11.2 16.6 6.4 4.3-6.8-9.4-10.6-14.1-12.5-9.2-3.8-12-2.5-20.5 2.2-4.8 2.6-1.8 5.8-7 1.9-2.7-2 1.9-8.5-6.2-7 2.3 24.5-63.4 9.9-75.9 3.9-10.8-4.4-26.1-11.7-36-3.2-3.5 3-1.3 5.9-3.2 8.5.7-1-12.9 4-1.7 3.9-2.7 2.2-.8 4.7-.1 7.4 1.1 1.8 2.6 2.7 4.6 2.9-1.1 1.8-.9 3.6.3 5.2 6 3.6 9.5-5.7 16.4-6.9-.9 5.9 10.6 2.7 12.8 2.9 4.6.6 8.9 2.5 12.8 5.3 6.8 4.8 14.7 13.2 15.7 21.1.7 5.2-2 7.7.8 13.4 2.2 4.4 6.8 7.2 9.9 10.8 5.1 5.9 8.2 17.6 15.8 20.4 2.9-2.2-4.2-7.2-1-9.2 4-2.5 6.9 8.5 8.1 10.5 5.2 9.3 7.7 7.3 17.2 10.5 5.9 2 9.2 6.3 14.5 9.1 3.7 2 11.9 1.3 13.9 4.9 2.9 5.4-6.4 12.7-6.2 18.5.2 6.4 6.2 11.4 9.1 16.6 3.7 6.8 5.7 13.8 5.3 21.8-.7 13.4-9.9 27.8-5.1 41.3 1.3 3.5 8.3 12.3 12.5 11.3 6.4-1.4.3-8.3 1.2-12.8 2.2-12 23.7-16.9 31.2-26 5.3-6.4 9-14.2 14.7-20.3 4.1-4 16.8-10.4 12.9-17.2zM207.428 173.304c-.1-.2-.7-.3-1.9-.2 2-.3 2.2-1 .6-2.1.4-.2.1-.3-1-.4 1.9-1.2 1-1.7-.1-1.4 1-1 .9-1-.6-.3.5-1.6-.9-3.2-4-3.9-.3-.6-.5-.7-.6-.4.3-1.6.1-1.5-.8.1.3-.8.1-1.4.1-1.5-.1 0-2.2-.7-2.5 1.5.1-2.6 0-2.6-.6-.2 0-2.4-.1-2.4-.6 0 .2-2-.3-2-1.3-1-.4-1.3-.4-.9-.7.8-.1-1.7-.8 6.2-.5 6.7l.2-.2.3 1.2c-.2-1.5 5.5 4.9 6.5 3.1-.7 1.9-.2 2 1 .7-4.8 6.5 10.8.5 4.8-1 2.6.2 2.6-.2.2-.8 1-.1 1.6-.5 1.5-.7zm-14.3-3.8zm11.9 3.9zM231.128 173.404c.8 0 1.6-.1 2.5-.1-.2-.1-5-2.7-5-2.6-.3-.5-.4-.5-.6.1-.8-.3-4.8 1.6-4.2 1.7-.8 0-.9.1-.1.4-.9.2-.8.5 0 .4-.7.1-.8.4-.3.9-.2.1-.1.2.3.4-.8.3-.2.8.2.9-.2.5-.2.5.4.3.4 1 1.6 1.5 3.1 1.2.3.2.4.2.4 0 .2.5.3.4.4-.2 0 .5 1.8 0 1.4-.7.6.5.7.4.4-.3.7.3.8.2.3-.4.7.4.7-.5.7-.8.5-.2.3-.3-.2-.5.3.1.5-.4.3-.7zM231.428 124.004c.2-3.2-1.6-4.6-5.2-3.2-.6 0-.9.1-.7.3-.7-.6-.7-.5-.5.5-1-2-.4 1.5-.9-.4.1 1.5-.2.1-.2 0 0 0-.1.2-.4 1 .3-1.4.6-1.3-.4-.2.6-1.3.7-1.2-.4-.3.6-.7.8-.9.1-1 .7-.6-.2-.5-.6-.5 6-2.5-12.4-1.7-7.2.7-1.1 0-1.1.2-.3.8 0 0-2 2.3-.4 3-2.6.6 6.3 5.8 7.2 4.5-.2 1.1.9 1.9 1.7.8-.6 2 5.6.9 4.5-.9 1 1 1.1.9.7-.4 1.2.9 1.4.3.6-.5.9.7 1.4.4 1.5-.9.3.2.3-.1.1-.9 1.3.8 1.3-1 1-1.5.6-.4.6-.5-.2-.9zm-12 4.4c.3-.6 1.7-2.8 0 0zM182.328 93.404c1 .1-1.1-2-.9-1.9 0-.3 0-.5-.1-.4.4-.5.3-.4-.3-.3.8-.4-1.2-2.3-1.4-1.1-.1-.9-.4-.9-.6-.1-.3-.8-.4-.8-.5.1-.1-.7-.6-.5-.9-.2-.3-.4-.3-.2-.4.4-.2-1.1-4.5.8-4.2 1.3-.5-.4-.5-.4-.4.2-3.8 4.8 1.3 5.2 1.4 6.1.4.8 1.2.3 1.2-.3.3.8 2.7-.1 2.3-1 .5.8.5.8.4-.1.5.8.7.6.4-.2.2.6.6.6.9 0 .1.2.2.1.3-.4.3.8.8.3.9-.2.4.3.4.3.3-.3 0 0 3.4-1.2 1.6-1.6zM181.028 102.004h-.2c.1-.4.1-.5-.1-.4.3-.4.2-.4-.3-.4.4-.2-.8-1.6-1.1-.8.1-.7 0-.7-.3-.2 0-.7 0-.7-.4-.1.1-.6-.4-.5-.7-.3-.2-.4-.2-.2-.4.2 0-1.1-3.8.8-3.3 1.4-.5-.2-.5-.2-.3.3 0 0-1.4.4-.9 1.2-2-2-2.8 5.2 0 3.3.4-.3.4-.6.6-1.4 0 .1.2.2.6.2-1.1.6 2.4 2 2.2.5.2.7.2.7.3 0 .3.7.4.5.3-.1.1.5.3.6.7.1 0 .2.1.1.3-.3.2.7.6.2.8-.1.3.2.3.2.3-.3.2.1 3-1.6 1.9-2.8zm-8.2 1.7l.2.1c-.1 0-.1 0-.2-.1zm1.1 1zM138.328 76.104c.6.2.9-5.4-1.6-3.8 1.4-1.5 1.3-1.6-.5-.9 1.1-1.5 1-1.6-.7-.8 1.3-1.2 0-1.8-1-2 .2-1.1 0-.9-1.2-.1 2.6-3.5-10.8-4.7-8.5.9-.8-1.1-.6-1.2-.7.2-13-1-9.1 7-10 7.9-.7 1.4.8 2.8 2.2 1.8-1.1 2.4 5.2 1.7 5.5-.4.1 2 .2 2.1 1 .2.4 2.1 1.1 1.8 1.1 0 .2 1.6.9 1.8 2.1.7 0 .4.3.2.8-.7.3 1.7 1.4 1.1 1.8.2.5 1 .4.9.8-.3 1.5 1.5 4.9 1.5 8.3-.3.8-.6 1-.9.6-1.1 1.5-.1 1.4-.5 0-1.5zM107.628 67.604c-1.3-1.4-2-2.5-4.2-1.9-.5-.3-.7-.3-.6 0-.4-.7-.4-.7-.6.2-.1-.4-2.2-.9-1.9.5-.5-1.2-.5-1.2-.5 0-.4-1.1-.4-1.1-.5 0-.1-.9-.5-.9-1-.5-.2-.7-.1-.4-.5.3.6-3.3-7.9-.7-6.1.2-.9.1-1 .3-.2.8 0 1.3 6.7 8.6 7.2 5.6.2 1.3 3.9.4 3.4-.9.7 1 .8 1 .5-.2.8 1 1 .7.5-.3.5.8.9.8 1.3-.1.1.3.2.1.3-.6.7 1.1 1.4 0 1.5-.6.9.1.9-.1.4-.7 0 .1 1.6-1.1 1-1.8zM127.428 59.604c.3-.5.3-.7.1-.7.5-.4.5-.5-.3-.6.6-.2-.7-2.5-1.4-1.4.3-1 .2-1-.4-.3.1-1 0-1-.5-.2.3-.9-.6-.8-1-.6-.3-.5-.3-.3-.5.3-.1-1.3-5 .3-4.8.9-.5-.5-.5-.5-.5.2 0 0-2-.2-1.8 1.1-1.1-3.1.9 9.7.5 6.2.4.6 1.7.4 1.4-.5.6.8 2.5-.4 2.3-1.2.5.9.5.9.4-.1.5.9.6.8.4-.1.1.7.4.8.9.3 0 .2.1.1.4-.3.1.9.7.6 1 .2.3.5.3.5.5-.2 1.5.2 2.8-.8 3.3-3zm-11.5 3.2zM111.628 56.204c.3 0 .1-.2-.4-.6.7-.3.4-.7 0-.9.4-.3.3-.3-.2-.4.2-1.6-.8-2.4-2.9-2.2-.3-.2-.4-.2-.4-.1-.2-.5-.2-.5-.4.1 0-.3-1.6-.8-1.5.2-.3-.9-.3-.9-.4 0-.3-.8-.4-.8-.4 0-.1-.8-.6-.5-.9-.2-.4-.4-.3-.2-.4.4-.7-2.2-4.4 3.7-2.7 3.5-.5.4-.5.5.2.5 0 0 5.8 4.6 6.4 1.9.1 1 3 .1 2.4-.9.6.7.6.7.4-.2.9.5 1 .4.5-.3.7.5 1 .2.7-.8zM148.828 71.304c.3-.3.3-.3-.2-.4.1-.9-.5-1.9-1.6-2.5-.1-.3-.2-.4-.3-.3.1-.5.1-.4-.4-.1.3-.5-1.5-1.1-1.4-.5-.2-.7-.3-.6-.4.2-.5-.4-.6-.4-.3.2-.2-.5-.4-.4-.7-.1-.3-.3-.3-.2-.3.3-.8-2.1-3.1 4.2-1.3 3.4-.4.4-.3.4.2.4 0 0 .3 1.6 1.2 1-.4.5 4 2.1 3.5.6.4.6.5.5.4-.2.6.5.8.2.3-.3.5.4.7.2.8-.5.1.1.1-.1 0-.5.9.4.8-.7.5-.7zM141.328 60.604c.1-.5 0-.7-.6-.6.7-.3.7-.4-.1-.4.7-.4.5-.6-.1-.4.5-.2.5-.5.1-.8.1 0 0-.1-.3-.3.6-.3.2-.6-.1-.7.3-.3.2-.3-.2-.3 0-.7-.5-1.7-1.4-2.5 0-.3-.1-.4-.2-.3.2-.4.2-.4-.4-.3.4-.4-1.6-1.7-1.4-.8-.4-.9-.5-.8-.4-.1-.5-.7-.6-.6-.4 0-.4-.6-1.1-.7-.7.2-.4-.1-.3.1.2.7-.8-.5-.1 4.3.8 3.9-.4.4-.4.4.2.3 0 0-.2 1.4.8 1.2.2-.1 2.1 4.9 2 3.1.8 1.8 2-1.6 2.2-1.9zM162.928 60.204c0-.1-.2-.2-.7-.4 1-.6.9-.8-.2-.6 1.1-.3.1-1.6-.6-1.4.2-.2-.1-.2-.7-.1.6-.9-.4-1-.9-.7-.1-.6-.1-.6-.6-.1-.7-.7-2.4-1.2-4-1-.3-.3-.5-.3-.5-.2-.1-.7-.1-.6-.5.1.1-.3-1.5-1.4-1.8-.2 0-1.1 0-1.1-.5-.2-.1-1-.1-1.1-.5-.1.2-1-.7-.8-1.2-.5-.4-.5-.5-.3-.6.4-1-3.8-4.1 7.9-1.2 5.5-.3.7-.3.8.4.4 0 0 .9 2.1 2 1.1.2-.4 7.3 2.7 6.9.5.4.7 1.3.6 1.3-.3.5 1.6 4.4-1.7 3-2.1.6.1.9 0 .9-.1zM217.828 56.504c.7-.1.1-1.2-.2-1.4-.5-.2-1.4 0-1.8.3.5-1.4-1.5-.2-2.1-.1-.5.1-.8-.4-1.3-.4s-.7.3-1.1.6c-.1-1-2.9-.2-3.5-.1-.5.1-.2.1-.7.1-.3 0-.4-.1-.6 0-.3.1-.5.4-.7.5-.3.1-.2-.1-.6-.2-1.1-.2-2.1.2-3.1.3-.6.1-1.3.1-1.9.1s-1.2.2-1.7.3l-3.6.3c-1.1.2-2.2-.1-3.4 0-.5.1-4.7-.4-4.7.2-.8-.5-1.1-.5-1.9 0-.4-1-1.4.1-1.9.1-.2 0-.7-.4-1-.4-.8-.1-1.6.2-2.3.4-.5.1-1.2.1-1.6.3-.7.3-.6.6-1.3.5-1.4-.1-2.5.7-3.9 1-1.5.3-3.1.6-3.8 2.2-.2.5-.3 1.3.2 1.7.4.4 1.4.2 2 .2 1.2.1 2.3.5 3.4 1 .6.3.9.7 1.1 1.3.1.2.1.5.3.7-.1.3.1.4.4.2.2 0 .4-.1.7-.1v.1c-.4 0-.8.1-1 .1-.1.8-.3 1.5-1 2s-2.5.6-2.5 1.7c-.6-.4-1.1-.8-1.8-.5-.9.5-.6 1.2-1 1.8-.2.2-.3 0-.4.1-.2.2-.3.6-.3.8-.1.6.3 1.7 1.1 1.4-.5.6 2.6.7 2.8.7 1.1-.1 2.3-.1 3.5-.3.6-.1 1.1-.4 1.7-.6l1.7-.3c.6-.2 2.3-.5 1.9-1.4.3.1.8.3 1.1.2.4-.2.3-.6.6-.8.2-.2 2.4 0 1.8-1.1.4.7 1.9-.4 2.4-.6.4-.2.8-.7 1.3-.8.4-.1.6 0 1-.3.2-.1.3-.4.5-.4 0 0 .3.1.4.1.5 0 .8 0 1.4-.1.4-.1 2-.4 2-1 .9 0 1.2-.2 1.7-1 .3.3.9-.1 1.2-.3l.4-.8c.2-.1.8 0 1.1-.2.8-.3 1.3-1 2-1.5l.9-.5s.3-.3.6-.5c.2-.2.2-.3.4-.4.2-.1.6-.1.9-.2.6-.2 1.5-.6 2.1-1 .3-.2.3-.3.7-.4.4-.1 3.4-.1 3.1-.8.3.1.6.3 1 .2.3 0 .6-.4.9-.5.6-.1.8.3 1.5-.2.3-.2.5-.3.7-.4l1.2-.1c.2 0 .4-.1.6-.2l.6-.6c.4-.1 1-.2 1.4-.5.1 0 .3 0 .4-.2.2.1-.2-.2 0-.3zM291.628 50.904c-.3-.3-1.8.4-2.1.5.6-.4 1.4-.8 1.7-1.6-2.5.1-5.1.9-7.4 1.9-1.1.5-2.5 1.5-3.5 1.3-.5-.1-.9-.2-1.3-.1l-1.5.8c.2-1-2.7-1.9-3.3-2.2-1.3-.5-2.6-.8-3.9-1.4s-2.5-1-3.9-.9c-1.4 0-2.8.2-4.3.1s-2.8.1-4.2.6c-1.4.5-2.7.7-4.1.9-1.4.2-2.6.7-3.9 1.2-1.1.4-2.1.5-3.1.8-.7.2-5.3 1-5 2.1-.6-.1-1.3-.4-2-.3-.6.2-1.2.8-1.6 1.2-.1-.3-.4-.3-.7-.3-1 0-1.3.1-2 .8-.2.2-.5.6-.7.6-.3.1-.2-.1-.5-.1-1-.2-1.8-.2-2.8.1-1.2.3-2.3.7-3.4 1.1-.4.1-.7.3-1 .4-.5.1-1.2 0-1.7.2-.8.3-1.1 1.1-1.9 1.2l-1.6-.2c-.4 0-.9.2-1.2.2-1.2.3-2.3.8-3.4 1.2-1 .4-2 .5-3 .6l-5.5 1.6c-1 .2-2 .2-2.9.4-1.1.2-2.1.7-3 1.2-1.9.9-4 1.8-4.1 4.2-.2 2.5 2 4 4.2 4.3 1.1.2 2.2.3 3.3.1 1-.1 2-.5 3.1-.7-.1-.6-.3-1.2-.4-1.9.5-.1.3 1.6.6 1.8.5.5 2.8-.2 3.5-.4 1.5-.2 2.6.1 4.1.3.8.2 3.5 1.4 4.1 0 .3.4.3.7.3 1.2 0 .3-.2.1-.1.4.1.7 1.2 1.9.9 2.6-.1.4-.4.3-.4.7 0 .5.5 1 .9 1.2 1 .7 2.3.6 3.5.1-.1.3 0 .8-.2 1.1l-.2.6c-.4 1.1-1 2-1.5 3-1 1.8-1.5 3.9-.7 5.7.8 2 2.7 3.3 4.4 4.5.6.4 1.3.8 1.8 1.4.7.7 1 1.3 1.9.4-.1 1.6-.2 2.5 1.5 2.7.1 0 .6 0 .7.1s.1.7.1.8c.1.5.3.9.7 1.3.5.6 2 1.3 2.4 0-.7 2.1 4 1.4 5 1.1 1.1-.3 2.1-.9 2.8-1.8.4-.5.4-.7.9-1.1.4-.3.8-.6 1.1-1 .5-.7.5-1.5.4-2.4-.1-.3-.1-.4 0-.6s.3-.4.4-.6c.2-.4.4-1 .5-1.5.1-1-.2-1.9-.2-2.9 0-.5.2-1.6-.2-1.8.4-.2.9-.4 1.2-.7.3-.4.4-1 .7-1.5.2.5 1.4.2 1.8-.1.4-.3.7-1.2 1.3-1.3 0 0 .4.3.5.3.3.1.9.2 1.3.2 2.4-.1 4.6-1.6 7-2.1.5-.1.6-.1 1-.4l.9-.9c.3-.1.5 0 .9 0 .5 0 1-.1 1.5-.3 1.4-.5 2.9-1.3 4.3-2.1.2-.1.5-.3.7-.5.1-.1-.1-.2 0-.2.8-.8 2.5-.9 3.5-1.4.8-.4 1.5-.8 2.2-1.4.4-.3 1.6-1 .9-1.5.8-.2 1.7-.5 2.3-1.3.6-.8.3-1.6.5-2.5.1-.5.8-1.2 1-1.9.1-.8-.4-1.5-.8-2.1.4-.1.9-1.6.8-1.9-.2-.1-.4-.9-.5-1.2-.1-.5-.2-.4.1-.9l.7-.7s-.1-.5 0-.7c0-.9.4-.5 1.1-.8 1.4-.6 2.8-1.3 4.2-2.1.9-.5 2.3-1.9.3-1.7.9-.3 2-.6 2.8-1.2s.4-.9-.2-1.4c.3-.1 2-1.8 1.6-2.5zM294.928 80.504c-.4-.8-.9-1-1.3-.7.8-1.4.2-1.3-1.4-.3 3.6-3.8-9.8-3.3-8 .1-1.1-1.3-1.1-1.4-.5.3 3.3 1.2-12.6-3.1-7 2.8-6.2-4.5-2.7 1.8-2.6 1.8-1.9.2-2.5 2.3-.2 2.2-4.6 1.3 3.1 7.9 3.8 3.4 0 2.7.3 2.7.8.1.3 2.6.8 2.3.8.3 0 1.6.5 1.7 1.5.4 0 .5.2.2.6-.9.3 2.2 1.2 1.5 1.5.2.7 1.2.7 1.1.6-.6 1.2.8 3.1.1 5-2.4.6.1.8 0 .6-.2 1 1.3.9 1.1.4-.7.3.7.9 1.1.9 1.1-.4.2 2.2-1.1 1-2.9 1.9 1.8 2.3 1.4.8-.6 2.3.9 2.8.1.6-1.1 1.8 0 2.4-.7 2.1-2.3zM344.328 56.504c-.4-2.6-2.3-4.7-3.8-2.7-.1-.3-.2-.4-.2-.2.4-1.7.5-1.5-.5.3.3-.8.5-1.5.5-1.5-1 1.2-.8.3-.8-.4-.7-.5-1.2 0-1.6 1.5 1.2-2.6 1.1-2.6-.5-.4.9-2.5.8-2.5-.6-.3 1-2.2 0-2.1-1.3-1.5-.2-1.5-.5-1-1 .8.3-3.2-7.7-.3-7.1 1.3-1.1-1.4-1.2-1.3-.8.4-2.7 2.7-1.1 10.7 3.6 7.5-3.8 2.9 1.3 4.2 2.9 1.4-1.2 2.8-1 2.9.8-.1-.6 2.8-.3 2.7.8-.2-.7 2.3-.2 2.5 1.6.7-.1.6.2.2 1-1.2.1 2.2 1.7 1.2 1.9-.2.8 1.2.6 1.1.5-.6-.1.2 5.3-1.1 4.6-4.6zm-11.9 2v-.1.1zm-.1-.9M366.528 49.804c-.7-.9-.5-4.7-2.6-2.3 1.1-1.8 1-1.9-.4-.4 1-1.9.3-1.9-.5-.3.8-1.3.6-1.7-.7-1.2.1-.3-.1-.2-.7.4.5-1.7-.3-1.5-.9-.7-.1-1.1-.1-1-.6.2-.6-1-2.1-1-4.1.2-.4-.2-.6-.2-.5 0-.4-1.2-.4-1.1-.5.4-.1-.6-.5-1-.5-1s-2 .5-1.3 2c-1-1.7-1.2-1.6-.6.2-1.2-1.4-1.4-1.3-.5.4-1.2-1.5-1.8-.3-1.6.8-1.2 0-.9.4.2 1-5-1 3.7 8.4 4.1 4 .1 1.4.1 1.3.5 0-.3 1.6.9-.6 1.7.8 0 0 .2-1 .3-1 0 .7 2.9 1.4 3.4 1 1 .4 4.6.7 3.1-1.5 1.5 1.1 2.5-1 1.3-1.7.7.2 2.2-.2 1.4-1.3zm-5.8 4.5" fill="#F2C617"/><path d="M299.028 103.604c.1-.4 0-.6-.2-.6.4-.2.2-.2-.2-.4 2.9-.6-4.7-3.4-3.1-1.1-.4-.3-.5-.2-.3.2-.6.1-2.8 1.2-2.1 2-.7-.4-1.6 2.3-.5 2.2-.7.2-.7.2 0 .4-.7.4-.7.6 0 .5-.7.3-.4 1.3.2 1-.2.2 0 .2.6 0-.4.7.6.5.8.3.2.4.2.4.4-.1.9.3 2-.3 2.9-1.4.3-.1.4-.2.3-.3.5.1.4 0 .2-.4.3.2 1.3-1.1.5-1.3.7 0 .8-.1.1-.4.7-.1.7-.1.1-.4 0 0 .2.1.3-.2zM316.528 97.704c-.1 0 .2-1.4-.4-1.5.2-.6.2-.8-.1-.7.7-.6.6-.7-.4-.6.5-.2-.1-2.9-1.4-1.8.9-1.2.8-1.2-.3-.5.7-1.1.7-1.2-.4-.5.8-.9.1-1.2-.6-1.3.2-.8 0-.6-.8 0 2-2.8-8.1-2.1-7-.9-1-.3-1.2-.2-.7.6-1.2 1.6-1 6 3.5 5.4 0 0-1.1.3-.2 1.3-.9-.5-2.2.8-1.3 1.6-2.9-.8.1 6.8 1.5 4-.3 1.4 0 1.5.7.3.3 1.3.6 1.3.8 0 .2 1.1.7 1.2 1.7.2.1.3.3.1.5-.7.5 1.1 1.2.2 1.4-.5.6.4.6.3.5-.5.4 0 3.9-3.9 3-3.9zm-6.9-1.6l-1.2-.1c-.5-.1 1.6-.1 1.2.1zm-1.2-.3zM438.428 41.804c-.3-.3-.7-.6-1.2-.7 1.1-.6-5.5-4.8-4.9-.7-.9-2.1-1-2.1-1.1.1-.9-1.9-1-1.9-1.1.3-.4-1.8-1.5-1.2-2.2-.2-.8-1-.7-.6-.8.9-.7-2.8-12.3.5-10.6 2.4-1.4-.6-1.4-.7-.7.7-15 4.8-3.6 9.3-2.8 10.9 1.4 1.1 3.7-.3 2.5-2.2.7.5 1.6.2 1.6.3 1.2-1.1 3-3.1 2.4-4.4 1.4 1.7 1.3 1.7.8-.4 1.3 1.8 1.4 1.4.9-.4.2 1.6.9 1.7 1.9.5 0 .5.3.2.9-.8.3 2 1.6 1.2 2.1.1.7 1 .7.9 1-.5 2 .6 5.5-.3 8.5-2.5 1.4-.2 1.9-.5 1.5-.9.9-.1 2.4-1.4 1.3-2.5zM474.428 36.504c2.1-.7 1.9-1.2-.1-.9 1.6-1.4 1.4-1.6-.4-.7 1.3-.9 1.2-1.5-.3-1.7.3-.3-.1-.3-.9.1 1.1-1.6 0-1.6-.9-1.1.2-1.1 0-1.1-.7 0-.5-1.1-1.9-1.6-3.9-.9-.2-.3-.3-.4-.3-.2.4-1.2.4-1.1-.5.2.3-.6.4-1.1.4-1.1.2.2-1.4-.9-2.1.7.7-2.1.5-2.1-.5-.3.3-2 0-2.1-.7-.2.3-2.3-1.3-1.5-1.9-.5-.9-.8-.9-.3-.5 1-2.8-4-4.2 9.1-1 6.5-.9 1.2-.8 1.4.5.5 2.1 1.2 8.3 2.8 8.8 1.3-.2 1.2.9 2.3 1.5.4 0 4.6 7.9-3.5 3.5-3.1zM494.328 33.304c1.4.4-.5-1.7-.2-1.6 0-.3-.1-.5-.2-.4.4-.6.3-.6-.4-.2.3-.4-.7-1.6-1.1-.4.2-1.1.1-1.1-.3-.1.1-1 0-1-.3-.1.1-.8-.1-.8-.5-.5-.1-.6-.1-.4-.3.3.1-1.5-3.5-.2-3 .5-.6-.5-.6-.4-.3.2-1.1 1.6.8 4.7.9 3.5.1.7.5.9.6.1 0 1.1 1.5 1 1.5 0 .1 1.1.1 1.1.3 0 .1 1.1.2 1 .3 0-.1.8.1.9.5.5 0 .2.1.1.3-.3 0 1 .5.7.7.2.3.5.4.4.3-.3 0-.1 2.4-.9 1.2-1.4zM553.828 46.104c0-.7-.4-1-1.3-.9 1.6-1-1.8-3.7-2.5-1.7.3-1.6.2-1.6-.4-.2.2-1.7-.1-1.5-.4-.1.3-1.1.1-1.4-.7-.9 0-.3-.1-.1-.5.4.1-1.4-.4-1.2-.8-.5-.2-.9-.2-.8-.4.2-.6-.8-1.9-.9-3.4.1-.4-.2-.6-.2-.5 0-.5-.9-.6-.8-.3.4-.4-1.1-2.4-.3-1.3 1-1.3-1.2-1.5-1-.4.3-1.4-.8-1.5-.6-.3.4-2-1.1-1.4 1-.8 1.7-.2 1.3.3 1.5 1.3.7-.3.5.1 1.1.1 1.1.9.2 4.3.7 4.2-.5.3 1.1.3 1.1.4 0-.2 1.3.7-.5 1.3.8l.1-.8.2.8c0-.1 7.8-.5 5.4-1.4 1.2-.1 1.7-.4 1-.9z" fill="#F2C617"/><g fill="#F2C617"><path d="M599.028 276.004zM599.728 271.104h-.1c2.2-.8 1.8-1.5-.9-1.6 2.6-.8-2.8-6.6-3.5-2.5.1-3.7-.7-3.9-1.1-.4-.9-3.5-1.4-3.5-1 0-.9-3.3-2.3-2.8-2.5-.7-1.6-1.5-1.3-.8 0 1.5-2.7-3.4-4.4 2.1-4.6 1.7 0 0 .5.5.1.3.3.5.6 1 1 1.5-1.6-2.1-1.5-2.1-.3.2-.1-2.4-.5 1-2.6-.7 0 0 .7 1.7.7 1.8.5.9-12 6.4.7 6.4-2.8 5.9 1.5 6.3 1.7 3 .3 2.6 2.3 3.3 2.1.3 1 4.3 6.4 1.6 3.8-1.7 2.6 2.9 2.7 2.9.5-.3 2.8 3 2.8 2.2.4-.4 1.7 2.3 2.4 2.4 2.2.2.5.5.3 0-.4-1.4 2 1.5 2.8.8 1.6-1.1 2 .4 1.9.2-.3-1.1.6.3 1.1.3 1.7.1-3.8-1.3.4.1 0-.2s-.1-.7.2-3.3c2.5.3 2.6-.4.6-1.6zm-4.5 2.2zm0 0z"/></g><path d="M616.228 254.804s-2.9-9.4-4.3-5.4c.2-1.8 0-1.9-.7-.3.2.5-4.6-4.8-4.9-1-.3-.4-.9-.6-.6.2-.9-.6-.3.8 0 1.3-2.5-2.8-3.7 3.1-.2 3.7-2.8-.1-2.7.3.2.7-2.3.8-2.2 1.1.3.7-1.3.3-1.6 2.7-.5 2.3-.3.2-.1.4.7.5-1.1 1.3-1.6 2.9.1 1.7-.8 1.6-.6 1.4.3-.1.4 2.6 1.9 2.7 3.9 1.3.5.3.7.3.6 0 .8 1.6.9 1.5.4-.7.2.5.5 1 .9 1.4.2-.1 2-1.3.2-3.2 2.2 2.1 2.3 1.9.5-.3 2.2 1.7 2.4 1.5.3-.5 1.9 1.4 2 .8 1.6-.6 1.5.3 1-.1-.6-.9 0-.1 3 .5 1.8-.8zM578.228 251.704c.5-.9 1.1-1.9.8-3-.3-1.2-1.2-2.3-1.4-3.6-.5-1.9 1.4-3.7.5-5.7-.6-1.1-1.7-1.9-2.5-2.9s-.8-2-1-3.2c-.2-1.1-.4-2.3-1.2-3.1-1-1-2.3-1.2-3.4-2-.5-.3-.7-.6-.9-1.2-.2-.4-.2-.8-.5-1.2-.3-.4-.7-.7-.9-1.1-.2-.2-.6-.9-.8-1-.3-.1-1 0-1.2.1-.7.2-1.3.6-1.8 1 .1-.2 2.3-2.4 2.2-2.6-.1-.1-3.1.8-3.3.9.9-.4 1.8-.8 2.1-1.8 0-.3.2-1.5.1-1.7s-.9-.2-1-.2c-.4 0-3.2.1-3.3-.2 0 0 .7-.8.8-.9.4-.6.7-1.3.9-1.9.3-.8.7-1.9.7-2.8-.1-1-.7-2.3-1.3-3.2-.8-1.3-1.8-1.3-3-1.9-.9-.4-1.2-1.6-1.5-2.5l-1.4 1.2c-.4.3-1.2.7-1.4 1.1.1-.6-.8-2.2-1-2.7-.4-.9-.5-1-1.5-1.2-2.3-.3-3.3 1.4-4.8 2.6-.5.4-.9.5-1.6.5-1.1 0-2.1.2-3.1.2-.8 0-1.7.2-2.5 0-.7-.1-1.3-.5-2-.9-1.5-.8-3.4-1.7-5-1.2-1.7.6-2.8 2.1-4.4 2.7-1.8.6-3.3.7-4.7 2-1.4 1.3-2.9 1.2-4.6 1.6-1.2.2-2.3 1.1-3.2 1.9-.8.7-2 1.5-2.3 2.5-.8 2.1 1.1 4 2.9 4.9-1.4 0-2.7.1-4 .2-.3 0-1.6.4-1.8.1.2.2 3.3 1.9 2.9 2.2-.1.1-2.8-1.9-3-2.2.3.4.7.8 1.1 1.3.7.9 1.2 1.9 1.7 3-.5-.7-1.1-1.4-1.6-2.2-.4-.5-.7-1.3-1.2-1.7-.7.1-1.1 0-1.7.5s-.9 1.2-1.5 1.6c-1.1.7-2.8.1-4 .3-3 .5-3.3 4.4-5.5 5.9-1.3.9-2.7 1.6-3.4 3.1-.3.5-.4 1.1-.5 1.6-.2.8-.5 1.6-.7 2.3-.5 2.4 3 2.3 4.6 2.6-.9.1-5.8.4-5.4 2.1.3 1.4 3.8 2 4.9 2.3-1.6.7-4.6 2.3-4.8 4.4-.2 2.4 4.2.5 5.1.1-1.2.6-2.6 1.1-3.4 2.3-.8 1.3-.2 2.6.1 4 .6 2.6 1.8 5 4.9 3.8-.6.6-.1 3.2 1 3.3 1.3.1 3-1.7 3.8-2.4-.5 1.2-.1 2.6.5 3.6.1.2.3.8.6.9.5.3 1.8.3 2.4.3 1.5.1 2.9.1 4.2-.9.8-.6 1.1-1.3 1-2.3 2.7 3 3.5 2.3 4.1-3.3.5 1.3 1.2 1.9 2.7 1.7.3 0 .9-.1 1.1-.4.1-.3 0-1.1-.1-1.4l-.2-1.8c-.1-.3-.6-1.1-.4-1.4-.1.2 1.5 2 1.7 2.2.2.3.5 1.1.9 1.3.6.3.5-.9.9-1.3.5-.5 1.1.3 1.4.8-.1-.1.5-1.3.5-1.5.1-.4.3-1.5.7-1.7-.3.2.5 2.3.6 2.6.3.7.3.9 1 .9.9.1 2.2.7 3 .1.4-.3.4-1.4.7-1.6l.1.4c.1.4 0 .7-.2 1.1-.1.2-.3 1-.4 1.1.5-.2.3-.4 1 0 .5.3 1.5 1 2.2 1 .5 0 .9-1.2 1.2-1.7.4 1.1 1.2 2.1 2.1 2.8.3.2.8.5 1 .8v1c-.1-1 .8-2.1 1.1-3l-.6 2.3c-.1.1-.2.7-.3.7.2-.1.4-.7.6-.9.6-.8 1.2-1.6 1.9-2.3-.8 1.1-1.4 2.3-2.2 3.2.2-.2 2.7-1.7 2.7-1.5.1.4-.3 1.1-.3 1.5-.1.6-.2 1.3-.2 1.9 0 1-.2 1.1.8 1.1.6 0 1.2-.1 1.8-.2.4-.1 1.3-.4 1.7-.3.4.2.1.3 0 .6-.2.6-.3 1 0 1.5.4.8 1.3 1.8 2.2 2.2.7.4 2.1.7 2.9.8 2.2.1 2.6-3.3 2.5-4.9 2.3 7.1 3.3 7 3.9.2 3.3 6.2 4.2 6 3.7-.8.4 1.1.8 2.4 1.8 3.2 1.1 1 2.2.2 3.4 0 1.1-.2 2.3-.4 3-1.3.5-.7.8-2.3.3-3.1.8.3 2.9 1.3 3.1 0s-1.2-3.3-1.7-4.4c1.2 1 2.7 1.3 4.1 1.1.9-.2 1.5-.9 1.9-1.7.7-1.4.4-2.8.4-4.4-.2-1.2.6-1.9 1.1-2.8zm-33.1-33.6zm-15.5.9c0 .3-.6-.7-.6-.7.2.2.4.4.6.7zM568.728 280.004c.7-.4.2-3.4-1.2-2.9 1.3-.8 1.2-.9-.2-.5 1.6-.5-.9-.5-.4-2.1-.4.2-.7.4-1 .6 3.3-1.6-13.7-1.8-7.2 2.2-2.2-1-2.3-.7-.3.5-2.2-.4-2.3-.2-.1.5-1.7-.5-2-.2-1 1.1-.4 0-.2.2.8.6-2.1.2-1.2 1.1-.2 1.2-1 .7-.8.8.5.4-.4 1.7.8 2.9 3.7 3 .8.4 1.2.5 1 .1.9 1.3 1 1.1.5-.6.3.7.9 1 .9 1s1.1-.5 0-2.1c1.6 1.9 1.6 1.9.4-.1 1.6 1.7 1.7 1.5.4-.3 1.3 1.4 1.5 1.1 1.5-.1 1.2.5.9.2-.3-.8 2.5 1.6 1.1-1.1 2.2-1.7zm-7.4-4.4zm1.7-2h.1c-.2.1-.2.1-.1 0zm-1 1.6zM571.228 199.004c-.9-.6-1.7-4-2.8-4.8 0-.8-.2-1.2-.7-1.3 1.6-.4 1.2-.8-1.6-1.4 1.6 0-3.3-6.4-4.9-3.8.6-2.5.4-2.6-1.1-.8.2-2.4.1-2.5-1.2-.5.6-1.9-.5-2.1-1.8-1.8 0-1.3-.4-1.2-1.2.2 1.9-3.9-12.7-7.1-12.2-5.9-1.7-1.8-2-1.7-1.6 0-9.3 6.2 5.6 15.4 7.2 14.1-.9 1.2-1.6 3.6 1.2 2.8-3.1 2.8 11.6 6.4 8.5 1.6.8.7 3.3 4.8 1.9.4.9 2.7 6.4 6.8 4.8 3.9.3.6.2.2-.4-1.1.5.8 2.8 4.4 1.6 1.6 1.5 1.7 1.3 1.3.4-.2 1.2.3 4.6-2.6 3.9-3zM530.928 174.804c.3-.6-1-3.4-1.8-2.6.4-.7.3-.8-.3-.3-2.1-2.7-3.4.1-4.3-.1-1.2-.1-1.2 1.9.1 1.8-1.2.2-1.2.3 0 .3-1.3.3-1.1.4.1.3-.9 0-1.1.2-.4.7-.2 0-.1.1.4.3-1 .2-.8.5-.2.7-.6.3-.6.3.2.3-.3 1.3.5 2 2.2 2 .3.3.5.4.5.2.3.8.4.7.4-.2.1.8 2.2.3 1.2-.8 1 .8 1.1.7.3-.2 1.1.6 1.1.5.2-.3.9.6 1 .1.8-.5.7 0 .5-.1-.3-.5 1.6.2.5-.6.9-1.1zM529.428 157.804c.2-.8 0-1.2-.3-1.1.9-.4.6-.5-.6-.6 1.1-.2.8-3.9.1-3.7.9-.9.7-1.2-.5-.9-3.7-6.7-5.3 1.9-5.4 1.9-1.8-.2-1.8-.1-.1.5-1.9-.1-1.6.3 0 .5-1.3-.3-1.6 0-.8.9-.3 0-.2.1.5.5-1.5 0-1.2.6-.4.9-.9.3-.9.3.3.4-1 1.6 0 3.3 3.1 4 .8.3 1.1.3 1-.1.9.9 1 .7.5-.6.4.6 2.8-.5.9-1.6 1.7.7 1.8.6.3-.4 1.6.5 1.7.3.2-.5.5.1 1.1.3 1.2-.1zm-2.4-3.5zM512.928 177.504c1.8-.5.7-2.3-.6-2 .8-.3 1.8-.6.6-.7 8.9.7-11-8.1-7.5-.9-.8-.9-.8-1-.6.2-7.2 1.1-10.3 11-7.4 9.4-.9.8-1.7.9 0 1.5-3.8 0 3.9 8 4.5 3.7.2 1.8.2 1.8.8.2.2 1.9.7 1.7.9.1 0 1.4.6 1.7 1.8.8 0 .4.3.2.9-.6.2 1.8 1.7.8 2 0 .8.7.9.6.9-.6 2.8-.7 4.1-3.3 3-7 .3-.4.3-.6.1-.6 1.1-.1 1 .1-.2-.6 1 .3 2.6-2.9.8-2.9zm-.8-3.5zM526.628 197.204c3.5 1.2-6.5-10.7-6.6-5.8-1.5-1.8-5.2 4.5-2.6 4.3-2 .4-1.9.7-.1.6-1.8.9-1.7 1.1.1.6.6-.2-3.1 2.3-.3 1.6-.3.2 0 .3.8.2-1.4 1.2-.1 1.5.7 1.2-.2 1-.1 1 .7.1.8.3 1.7.8 3 1.6 0 0 1.5.2 1.4-.6.4.3.5.4.4.2.8 1.2.8 1 .3-.3.3.6.8.9.8.8-.1 0 1.8-.9.5-2.1 1.6 1.1 1.7 1 .4-.4 1.5.9 1.6.8.2-.5 1.5 1 1.3.1.9-.7 1 .1.7-.1-.6-.8zM474.228 208.304c1.2-2.2.1-4.6-3.3-6 0-.6-.1-.8-.3-.6 1.1-1.4 1-1.3-.8-.2.6-.6.9-1.3.9-1.3s-1.1-1.4-2.9 0c2-2.1 2.1-2-.3-.6 1.9-1.9 1.9-1.9-.4-.5 1.7-1.3 1.5-1.7.1-1.8 1-1.2.5-.9-1.1 0 6.5-5.4-13.9-5-8.3-2.1-2-.1-2.2.5-.4 1.5-1 1.5 1.4 2.4.3 4.3 2.5-1.5.9-.4.4 0 0 0 .1 0 .1-.1.5 1 6.4 6.8 5.1 3.8-3.2 2.1-3.1 5.3-.1 2.9-1.3 1.4-1 2.8 1 1.5-2.1 1.9 1.1 4.9 3 2.7-1.8 2.3-1.5 2.5.7.6-1 2.8 3.3 3.2 2.1.2.8 1.9 3.6 1 2.7-.6.4.4.4-.1 0-1.3 1.8 1.1 2.4-.3 1.6-1.6 1.7 0 1.6-.2-.1-.8zm-14.3-9.2" fill="#F2C617"/><path d="M508.728 208.804c-1-2-1.9-2.9-3.6-2.8-.2-.5-.3-.6-.4-.4.3-1.2.2-1.2-.6 0 .3-.6.2-1.1.2-1.1s-1.6-.8-2.1.8c.3-2 .3-2-.5-.2.2-1.9.2-1.9-.5-.1.3-1.5 0-1.6-.9-1-.1-1.1-.2-.7-.6.5.3-2-4.8-1.8-4.8-.6-.3-1.4-.4-1.4-.6 0-5.8 7.1 3.5 5.2 3.5 6 .3 1.5.7 1.5 1 .1-.1 1.8 2 2.4 2.6.4-.3 2-.3 2 .5.2-.3 2.1 0 1.9.5.1-.5 1.4-.2 1.8.8 1.1-.1.3.1.2.6-.5-.2 1.4.6 1.5 1.2.6.5 1.1.7.9.9-.4-.2 0 4.3.3 2.8-2.7zM535.728 126.304l.2.3c1.6 2.1-1.2 2.8-2.6 2.4 0 0-.8-1.2-.8-1.4.4.3.8-1.3 1.4-2.6 0 .2 1 .6 1.8 1.3zM551.428 114.604c.7 1.1-.9 2.3-3.3 3.5-.7.2-1.6.6-2.5 1.1-1.5.6-2.9 1.1-4.1 1.5l-1.3.4h.2c-.1 0-.1 0-.2.1h-.2.1c-3-.2-3.2.3-1.9.8-.1.1 2.3 3.5 2.4 3.6.5.9 3.7-.5 6.6-2.1 4.9-.2 8.9-2.1 4.2-8.9zM554.828 108.204l-.2-.2c-.1-.2-1-.2-1.7-.2-.3-.7-.4 0-.4 0-.2 0 1.2 3.6 1.9 3.9.9 1.7 1.9 2.7 2.9.2.2-.2.3-.5.3-1 .3-1.6-1.2-2.4-2.8-2.7z" fill="#F2C617"/><g fill="#F2C617"><path d="M553.728 102.504c.5 0 .7-.2.7-.5-.3.3-.5.4-.7.5zM555.728 99.504v-.1c-.1 0-.1.1 0 .1zM555.328 99.804c.3-1.2.4-2.7.3-4v.1c.1 1 .1 2 0 3 .1-1.2.1-2.5-.1-3.8l-.3-1.1c-.4-1.2-.9-1.5-1.2-1.3-.2 0-.4-.1-.6 0-.7.2-.7 2.7-.4 5-.9 1.5.2 4 .6 3 .1.3.2.6.3.7-.4.7-.6 1.2.3.4-.5.2-.5 0-.2-.3.1.1.2.3.2.3v.1c.4-.4.7-1.1.9-1.9l.4-.6c0 .2-.1.3-.2.4z"/></g><path d="M407.828 216.604c-.6-.7-11.3-7.6-9.2-2.3-1.3-1.8-1.5-1.7-.9.5-1.4-2.5-.9 1.9-3.5.5-.5.9-7.3 6-5.2 11.8 7.9-3.4 1.6.1-.1.7 0 0 .4 0 2.6.1-1.3 0-1.8.3-2.7-.1.2.1.9.4 2 1.1-5.8-3.2-3.1 12.7 1.2 6.7-1.7 3.1-1.6 3.2.7.5-.9 3.4-.6 3.5 1 .5-.7 1.7.8 4.7 2 2.1-.1.7.3.3 1.3-1 .2 2.9 2 1.7 2.6 0 1.3 1.3 1.4 1 .9-1.1 2.9-.3 4.7-3 4.5-7.5.7-.7.8-1 .4-1 2.1-.4 2-.5-.4-1 1.3 0 3.4-3.4-.7-3 3.4-.7 3.4-.6.2-.7 3.2-.5 3.2-.4 0-.6 1.3 0 3.4.5 1.5-.7 1.8.2 1.2.1-.7-1 2.3.6 3.8-3.1 2.5-4.5zM454.428 180.104c.1.2-.5-4.7-1-2.9-.1-.1-2.2-1.8-1.8-.3-.4-.5-1.3-.2-1.1.5-.7-.9-2.5 2.2-1.2 2.4-.8.1-.9.2-.1.4-.9.2-.8.4 0 .4-.6 0-.8.3-.4.8-.2 0-.1.1.2.4-.8 0-.6.5-.2.8-.5.2-.4.2.1.4-.4 1.6.5 2.6 2.6 2.3.4.1.5.1.5-.1.4.4.4.3.4-.3.2.5 1.9-.8 1.1-1.3.8.1.9 0 .2-.4.8 0 .8-.1.1-.4.7.1.6-.5.4-.8.4-.2.3-.2-.3-.4.6-.1.7-1.1.5-1.5zM613.628 76.404c1.4-9.7-19.8-8.5-24.1-9.1-10.5-1.9-20.2-7.6-30.6-8.4-11.3-.8-18.5-1-29.3-3.3-10.4-2.2-20.9-.4-31.6-1.9 11.9-10.5-8.7-7.6-15.6-6.1-3.9.7-33.5 4.9-29.5 12.4-3.5-2.2-9.2-1.7-12.3 1.5 1.8.5 3.1 1.7 3.9 3.4-3.9 1.5-7.7 3-11.5 4.4 1.9-2.9 2.2-7.2.8-10.2-3 .4-5.6 4.2-4.9 7.1-7.8-.8-15.8.2-23.4 2.7-1.3.4-16.8 7.7-14.4 1.3-3.3 3.9-13 10.7-18 7.7-9.4-5.6 3.7-5.5 7.7-7-8.9-5.2-20.4-3.6-30.2.5-7.2 3-24.1 10.3-25.7 18.8 3.9-4.3 8.7 2.6 12.6 1.8 7.4-1.6 2.8-5.9 6.8-11.1 1.6-2.1 9.4-7.2 11-3.5.7 1.7-6.1 6.9-3.4 7.8 2.5-2.1 9-6.1 10.1-.7.6 3.1-5.2 4.1-7 5.8-4 3.8-17.9 18-23.4 5.6-1.7 1.5-2.2 3-1.5 4.7 1 2.4-.4 3.8-4.3 4.2-3.5 3.2-9.6 5.4-13.6 7.7 9.1 10.3-6.3 4-9.9 9.7-5.1 8.1 6.4 7.9 10.9 4.7 4.1-3 4-6.9 8.3-8.9 2.3-1.1 8.5-1.8 11.3-1.5 3.5.5 13 8.6 4.2 10.3 6.1 3.3 12.1-7.7 5.1-10.1.3-6.6 9.6 6.5 9.9 6.6 2.3.5 2.8-3.2 3-3.3 2.4-.3 2.8-1.2 7.4.1-3.1.3-1.6 3.8-1.1 4.8 1.7 3.4 5.9 0 8.5.8 6.7 2 6.3 6.8-.8 10.2-5.2 2.5-44.4 6.2-36.3-7.4-6.9 1-17.5 1.8-23.9 5.5-6 3.5-6.4 8.3-10.5 13.6-4 5-9.9 7.5-11.9 13.8-1.9 5.9.4 13.1 2.7 18.2 7.6 17 20.2 4.7 34.9 6.5 10.5 1.3 4.4 1.5 5.5 8.6.8 5.4 5.4 7.4 7.2 12.4 4.7 13.7-4.3 30.6 9 41.7 6.3 5.3 10 3 17.3-2.8 6.3-5 8.5-9.6 10.7-16.9.6-2.1-.6-4.2.2-6.2 1-2.6 3.2-3 4.6-5.1 4-6.1 3.6-10.3 4.8-17.2 2-12.2 16.3-19.8 16.9-31.3-9.2 4.4-14.1 3.4-19.2-4.1-3.3-4.8-12.6-17.4-9.2-23.8 4.7 3.3 8.8 7.7 11.7 12.7 1.7 3 2.8 10.9 6.5 12 2.2.7 13-6.9 15.1-8.5 3.1-2.4 8-5.5 5.7-10-2.5-4.6-9.6-.4-13.1-3.4-5.2-4.4-2-7.8 3.7-7.5 4.9.3 11.1 4.2 16.7 5 6.9.9 9.1 1.5 14 6.3 1 1 1.6 4.1 2.7 5.5.6.8 3.9-.4 4.2 0 2 3.3-.1 12.7 4.2 15 6.2 3.4 6.5-8 8.5-12 2.2-4.5 7.1-10.4 12.5-10.7 7.1-.5 6.3 3.9 9.3 7.9 2.8 3.8 3.9 5.2 5.2 9.6 1.8 6.2.6 12.2 8.8 14.6-1-5.5-2.9-11.1-5.5-16 4-5.4 9 9.8 14.6 2.3 4.3-5.7-6.5-12.1-3-17.1 3.3-5 17.1-2 22.4-6.3 8-6.5 2.4-11.7.6-19.7-1.9-8.5 1.5-10.3 7.8-3.6 2.5 2.7-1.4 7.6 3.6 7 3.6-.4 2.8-6.5 3.6-8.3 3.7-8.1 28-16 13.1-29.6 8.8-5.7 14.2-2.8 24.3-4.2 2.4-.4 19.5-6.3 19.8-2.1.3 4.1-19.2 7.1-15.9 13.3 4 7.5 12.5-3.8 15-6.1 4.3-3.9 8.4-5.1 14.8-5.5 2.7-.2 5 1.4 7.7.2 1.9-.7-1.6-7 3.2-5.8z" fill="#F2C617"/></g></svg>